<?xml version="1.0" encoding="UTF-8" standalone="no"?>
<!-- Created with Inkscape (http://www.inkscape.org/) -->

<svg
   width="48"
   height="48"
   viewBox="0 0 12.7 12.7"
   version="1.1"
   id="svg5"
   inkscape:version="1.1 (c68e22c387, 2021-05-23)"
   sodipodi:docname="edit.svg"
   xmlns:inkscape="http://www.inkscape.org/namespaces/inkscape"
   xmlns:sodipodi="http://sodipodi.sourceforge.net/DTD/sodipodi-0.dtd"
   xmlns="http://www.w3.org/2000/svg"
   xmlns:svg="http://www.w3.org/2000/svg">
  <sodipodi:namedview
     id="namedview7"
     pagecolor="#ffffff"
     bordercolor="#999999"
     borderopacity="1"
     inkscape:pageshadow="0"
     inkscape:pageopacity="0"
     inkscape:pagecheckerboard="0"
     inkscape:document-units="px"
     showgrid="true"
     inkscape:object-paths="false"
     inkscape:object-nodes="true"
     inkscape:snap-intersection-paths="false"
     inkscape:snap-nodes="true"
     inkscape:zoom="13.9375"
     inkscape:cx="23.964126"
     inkscape:cy="24"
     inkscape:window-width="1280"
     inkscape:window-height="961"
     inkscape:window-x="-8"
     inkscape:window-y="-8"
     inkscape:window-maximized="1"
     inkscape:current-layer="layer1">
    <inkscape:grid
       type="xygrid"
       id="grid824"
       spacingx="1.0583333"
       spacingy="1.0583333"
       color="#ff0909"
       opacity="0.22352941"
       empspacing="1"
       empcolor="#ff3f3f"
       empopacity="0.14117647" />
  </sodipodi:namedview>
  <defs
     id="defs2" />
  <g
     inkscape:label="Camada 1"
     inkscape:groupmode="layer"
     id="layer1">
    <g
       id="path5619"
       style="fill:#808000" />
    <path
       style="fill:none;stroke:#000000;stroke-width:0.264583px;stroke-linecap:round;stroke-linejoin:miter;stroke-opacity:1"
       d="m 3.175,8.4666663 c -10e-8,-1.0583332 1.0583332,-1.0583332 1.058333,0 0.023479,1.1190689 1.0583335,1.0583334 1.0583333,0 2e-7,-1.0583332 1.0583335,-1.0583332 1.0583334,0"
       id="path7652"
       sodipodi:nodetypes="cccc" />
    <g
       id="g3490">
      <path
         style="color:#000000;fill:#6600ff;fill-opacity:1;stroke:none;stroke-width:0.0466365;stroke-linecap:round;stroke-linejoin:round;stroke-opacity:1;-inkscape-stroke:none;paint-order:stroke fill markers"
         d="m 9.8009988,1.0871745 c -0.1792646,-0.073199 -0.3860341,-0.00213 -0.4820709,0.1573437 -4.037e-4,5.706e-4 -9.999e-4,9.954e-4 -0.00139,0.00156 -0.015771,0.022549 -0.028932,0.047102 -0.04013,0.073227 L 9.0713973,1.7999001 c -0.0084,0.019594 -0.015204,0.039254 -0.020304,0.059277 l -0.209893,0.4896712 c -0.012293,0.018937 -0.023388,0.039267 -0.032563,0.06067 l -1.996971,4.6588466 c -0.0036,0.01144 -0.00487,0.023098 -0.00393,0.034667 l 0.095673,1.3221101 c 0.0023,0.029531 0.018856,0.053447 0.044171,0.063554 0.025145,0.0105 0.054839,0.00546 0.078,-0.013668 L 8.0573397,7.6132842 c 0.01822,-0.015137 0.030133,-0.03679 0.033186,-0.060416 -6.446e-4,0.00552 -1.66e-4,0.010754 -0.00189,0.0163 L 10.078091,2.9278763 c 0.0089,-0.020847 0.01597,-0.041917 0.02125,-0.063157 l 0.210671,-0.4914877 c 0.01099,-0.017617 0.02059,-0.036133 0.02899,-0.055728 L 10.545003,1.836911 c 0.0112,-0.026125 0.01981,-0.052535 0.02525,-0.079303 1.38e-4,-6.801e-4 2.6e-5,-0.0014 1.58e-4,-0.00207 0.04892,-0.1787081 -0.04439,-0.3723157 -0.22366,-0.4455151 l -0.0155,-0.00633 -0.5122444,-0.2091654 z m -1.7123659,6.4819909 -0.00752,0.017553 c 0.0022,-0.00383 0.00412,-0.00776 0.00581,-0.011846 6.394e-4,-0.0019 0.00122,-0.00377 0.00172,-0.0057 z M 9.7498245,1.2490623 c 0.00407,0.00145 0.00835,0.00342 0.012397,0.00507 l 0.4923995,0.2010622 c 0.129507,0.052881 0.187641,0.191246 0.13346,0.3176479 L 10.182085,2.2534296 C 10.127904,2.3798309 9.9851017,2.4389921 9.8555958,2.3861108 L 9.3631962,2.1850486 C 9.2336899,2.1321672 9.1741131,1.9903663 9.2282932,1.8639667 L 9.4342949,1.3833738 C 9.4867823,1.260923 9.6235593,1.2043846 9.7498245,1.2490623 Z M 9.2680488,2.3254247 c 0,0 6.201e-4,2.532e-4 6.201e-4,2.532e-4 0,0 6.202e-4,2.533e-4 6.202e-4,2.533e-4 0.00916,0.00453 0.018647,0.00833 0.028268,0.012252 l 0.4923997,0.2010621 c 0.00878,0.00359 0.017425,0.00707 0.026306,0.01003 0.00738,0.00404 0.014494,0.00853 0.021389,0.013 0.073669,0.047728 0.1153781,0.1272651 0.1134502,0.2113287 l -0.0013,0.00302 C 9.948462,2.804554 9.942332,2.833143 9.930597,2.86053 L 9.0824651,4.8391966 c 0.00109,-2.632e-4 0.00217,-5.302e-4 0.00327,-8.012e-4 L 7.9708772,7.4392917 6.9966166,7.0414707 8.1117241,4.4399739 8.9562275,2.469785 c 8.737e-4,-0.00204 0.00167,-0.00405 0.0026,-0.00606 0.00259,-0.00604 0.00601,-0.011909 0.00901,-0.017653 0.00425,-0.00759 0.00899,-0.015089 0.013838,-0.022087 0.00969,-0.013996 0.020617,-0.02711 0.032584,-0.038614 0.00829,-0.00795 0.017381,-0.014461 0.026558,-0.021162 0.00993,-0.0073 0.020081,-0.01363 0.0309,-0.019386 0.00212,-0.00112 0.00428,-0.00199 0.00641,-0.00306 0.012826,-0.00636 0.026107,-0.012303 0.039841,-0.016447 0.00155,-4.701e-4 0.0032,-4.838e-4 0.00476,-9.055e-4 0.011942,-0.00334 0.023806,-0.00637 0.036208,-0.00797 0.00571,-7.518e-4 0.011617,-0.00107 0.017377,-0.00143 0.00993,-5.974e-4 0.019787,-4.81e-4 0.029834,9.81e-5 0.00868,4.186e-4 0.017102,0.00141 0.025797,0.00272 0.00412,6.548e-4 0.00808,0.0013 0.012202,0.00213 0.00131,2.686e-4 0.00268,6.375e-4 0.00398,9.137e-4 0.0067,0.00143 0.013196,0.00269 0.019901,0.00457 z M 6.9738113,7.2170763 7.8575263,7.5779247 7.5546981,7.8305066 c -0.00931,-0.00267 -0.018881,-0.00557 -0.028065,-0.00933 L 7.0280318,7.6175855 c -0.00894,-0.00366 -0.017883,-0.00766 -0.02615,-0.0121 z M 7.0147553,7.7828581 7.4159929,7.9466959 7.048758,8.2526355 Z"
         id="path7614" />
      <path
         style="color:#000000;fill:#6600ff;fill-opacity:1;stroke-width:1.28516;stroke-linecap:round;stroke-linejoin:round;-inkscape-stroke:none;paint-order:stroke fill markers"
         d="m 3.5801228,3.4113424 c -0.8088933,0 -1.4634564,0.6362434 -1.4634562,1.4257411 v 5.3762175 c 0,0.789497 0.6545629,1.428365 1.4634562,1.428365 h 5.5056075 c 0.8088934,0 1.4634567,-0.638868 1.4634567,-1.428365 V 4.8370835 c 0,-0.4138439 -0.180214,-0.7850957 -0.467876,-1.0451934 l -0.07058,0.1653412 c 0.226204,0.2265663 0.365696,0.5360625 0.365696,0.8798522 v 5.3762175 c 0,0.69935 -0.5741609,1.259744 -1.2906917,1.259744 H 3.5801228 c -0.7165307,0 -1.2906919,-0.560394 -1.2906918,-1.259744 V 4.8370835 c 0,-0.6993498 0.5741611,-1.2597435 1.2906918,-1.2597435 h 4.3547406 l 0.071257,-0.1659976 z"
         id="path7239" />
      <path
         style="color:#000000;fill:#6600ff;stroke-linecap:round;-inkscape-stroke:none;fill-opacity:1"
         d="m 3.7050781,7.5410156 c -0.1763886,0 -0.3503179,0.089486 -0.4707031,0.25 C 3.1139898,7.9515293 3.0429687,8.1801653 3.0429688,8.4667969 A 0.1322915,0.1322915 0 0 0 3.1757813,8.5996094 0.1322915,0.1322915 0 0 0 3.3066406,8.4667969 c 0,-0.2425345 0.06062,-0.4115557 0.1386719,-0.515625 0.078052,-0.1040694 0.1715712,-0.1464844 0.2597656,-0.1464844 0.088194,0 0.1797605,0.042415 0.2578125,0.1464844 0.078052,0.1040693 0.1386719,0.2730905 0.1386719,0.515625 v 0.00195 c 0.0063,0.3001679 0.07982,0.5337945 0.2011719,0.6972656 0.1213518,0.1634712 0.2960044,0.2551257 0.4726562,0.25 0.1766519,-0.00513 0.3459278,-0.1049444 0.4628906,-0.2695312 0.1169629,-0.1645869 0.185547,-0.393545 0.1855469,-0.6796875 1e-7,-0.2425345 0.06062,-0.4115557 0.1386719,-0.515625 0.078052,-0.1040694 0.1696181,-0.1464844 0.2578125,-0.1464844 0.088194,0 0.1797605,0.042415 0.2578125,0.1464844 0.078052,0.1040693 0.1386719,0.2730905 0.1386719,0.515625 A 0.1322915,0.1322915 0 0 0 6.3496094,8.5996094 0.1322915,0.1322915 0 0 0 6.4824219,8.4667969 c 0,-0.2866316 -0.071021,-0.5152676 -0.1914063,-0.6757813 -0.1203852,-0.1605137 -0.2943144,-0.25 -0.4707031,-0.25 -0.1763887,0 -0.3483647,0.089486 -0.46875,0.25 C 5.2311772,7.9515293 5.1601563,8.1801653 5.1601562,8.4667969 5.1601563,8.7098205 5.0992902,8.8846545 5.0214844,8.9941406 4.9436786,9.1036268 4.8525745,9.1479244 4.7675781,9.1503906 4.6825817,9.1528569 4.5949117,9.1146184 4.515625,9.0078125 4.4366032,8.9013634 4.3710507,8.7247592 4.3652344,8.4667969 c 0,-0.2866316 -0.071021,-0.5152676 -0.1914063,-0.6757813 -0.1203852,-0.1605137 -0.2923613,-0.25 -0.46875,-0.25 z"
         id="path8390" />
    </g>
  </g>
</svg>
