<?xml version="1.0" encoding="UTF-8" standalone="no"?>
<!-- Created with Inkscape (http://www.inkscape.org/) -->

<svg
   width="48"
   height="48"
   viewBox="0 0 12.7 12.7"
   version="1.1"
   id="svg988"
   inkscape:version="1.1 (c68e22c387, 2021-05-23)"
   sodipodi:docname="trash_can.svg"
   xmlns:inkscape="http://www.inkscape.org/namespaces/inkscape"
   xmlns:sodipodi="http://sodipodi.sourceforge.net/DTD/sodipodi-0.dtd"
   xmlns="http://www.w3.org/2000/svg"
   xmlns:svg="http://www.w3.org/2000/svg">
  <sodipodi:namedview
     id="namedview990"
     pagecolor="#ffffff"
     bordercolor="#999999"
     borderopacity="1"
     inkscape:pageshadow="0"
     inkscape:pageopacity="0"
     inkscape:pagecheckerboard="0"
     inkscape:document-units="px"
     showgrid="true"
     width="48mm"
     units="px"
     inkscape:snap-nodes="true"
     inkscape:zoom="10.718292"
     inkscape:cx="22.85812"
     inkscape:cy="27.849586"
     inkscape:window-width="1280"
     inkscape:window-height="961"
     inkscape:window-x="-8"
     inkscape:window-y="-8"
     inkscape:window-maximized="1"
     inkscape:current-layer="layer1"
     inkscape:object-nodes="true"
     inkscape:snap-smooth-nodes="true"
     inkscape:object-paths="false"
     inkscape:snap-intersection-paths="false">
    <inkscape:grid
       type="xygrid"
       id="grid1049"
       spacingx="1.0583333"
       spacingy="1.0583333" />
  </sodipodi:namedview>
  <defs
     id="defs985" />
  <g
     inkscape:label="Camada 1"
     inkscape:groupmode="layer"
     id="layer1">
    <g
       id="rect3621"
       transform="scale(0.26458333)"
       style="fill:#6600cc;fill-opacity:1">
      <path
         style="color:#000000;fill:#6600cc;stroke-linecap:round;stroke-linejoin:round;-inkscape-stroke:none;paint-order:stroke fill markers;fill-opacity:1"
         d="m 18.091797,4 c -1.233628,0 -2.252651,1.0323016 -2.982422,2.015625 -0.677553,0.9129627 -1.035091,1.6967859 -1.09375,1.8222656 H 10.212891 C 8.9945072,7.8378906 8,8.8028445 8,10 c 0,1.197156 0.9945072,2.162109 2.212891,2.162109 h 7.878906 11.816406 7.878906 C 39.005492,12.162109 40.000001,11.197156 40,10 40,8.8028444 39.005492,7.8378906 37.787109,7.8378906 H 33.984375 C 33.925716,7.7124109 33.568178,6.9285877 32.890625,6.015625 32.160854,5.0323016 31.141831,4 29.908203,4 Z m 0,0.484375 h 11.816406 c 0.948712,0 1.899382,0.8866457 2.59375,1.8222656 0.694368,0.93562 1.125,1.875 1.125,1.875 a 0.2430423,0.2430423 0 0 0 0.220703,0.140625 h 3.939453 c 0.963956,0 1.728516,0.7486471 1.728516,1.6777344 10e-7,0.929088 -0.76456,1.677734 -1.728516,1.677734 H 29.908203 18.091797 10.212891 c -0.963957,0 -1.728516,-0.748646 -1.728516,-1.677734 0,-0.9290873 0.7645591,-1.6777344 1.728516,-1.6777344 h 3.939453 a 0.2430423,0.2430423 0 0 0 0.220703,-0.140625 c 0,0 0.430632,-0.93938 1.125,-1.875 0.694368,-0.9356199 1.645038,-1.8222656 2.59375,-1.8222656 z m 1.96875,1.4335937 c -1.218381,0 -2.212891,0.9649535 -2.212891,2.1621094 a 0.2430423,0.2430423 0 0 0 0.242188,0.2421875 h 11.820312 a 0.2430423,0.2430423 0 0 0 0.242188,-0.2421875 c 0,-1.1968583 -0.992557,-2.1621092 -2.210938,-2.1621094 z m 0,0.484375 h 7.880859 c 0.865773,10e-8 1.490843,0.6393653 1.625,1.4355469 H 18.435547 C 18.570288,7.042185 19.195,6.4023437 20.060547,6.4023437 Z"
         id="path852" />
      <path
         style="color:#000000;fill:#6600cc;stroke-width:0.486036;stroke-linecap:round;stroke-linejoin:round;-inkscape-stroke:none;paint-order:stroke fill markers;fill-opacity:1"
         d="m 18.091797,4.2421875 c -2.182342,0 -3.939453,3.8378906 -3.939453,3.8378906 h -3.939453 c -1.0911711,0 -1.9707035,0.8567994 -1.9707035,1.9199219 0,1.063123 0.8795324,1.919922 1.9707035,1.919922 h 7.878906 11.816406 7.878906 c 1.09117,0 1.970704,-0.856799 1.970703,-1.919922 0,-1.0631225 -0.879533,-1.9199219 -1.970703,-1.9199219 h -3.939453 c 0,0 -1.757111,-3.8378906 -3.939453,-3.8378906 z m 1.96875,1.9179687 h 7.880859 c 1.091168,10e-8 1.96875,0.8567994 1.96875,1.9199219 H 18.089844 c 0,-1.0631225 0.879535,-1.9199219 1.970703,-1.9199219 z"
         id="path854" />
    </g>
    <g
       id="path4300"
       transform="scale(0.26458333)"
       style="fill:#6600cc;fill-opacity:1">
      <path
         style="color:#000000;fill:#6600cc;stroke-linecap:round;stroke-linejoin:round;-inkscape-stroke:none;paint-order:stroke fill markers;fill-opacity:1"
         d="m 24.021484,15.992188 c -5.307043,0 -8.161353,0.0028 -9.695312,0.01758 -0.76698,0.0074 -1.200751,0.01669 -1.464844,0.0332 -0.132046,0.0083 -0.215482,0.01504 -0.318359,0.03906 -0.05144,0.01201 -0.112082,0.02131 -0.208985,0.08594 -0.0969,0.06463 -0.232422,0.264662 -0.232421,0.435547 -1e-6,0.0011 9.43e-4,0.05353 0.002,0.0625 0.001,0.009 0.0028,0.01673 0.0039,0.02539 0.0022,0.01732 0.006,0.03787 0.0098,0.06445 0.0075,0.05317 0.01722,0.128898 0.03125,0.22461 0.02805,0.191423 0.06892,0.466176 0.121093,0.814453 0.104353,0.696553 0.254406,1.684905 0.433594,2.867187 0.358376,2.364566 0.836702,5.507643 1.318359,8.66211 0.481657,3.154466 0.965976,6.319144 1.335938,8.724609 0.184981,1.202733 0.342039,2.21617 0.455078,2.943359 0.05652,0.363595 0.101658,0.656086 0.134766,0.865235 0.03311,0.209148 0.04719,0.303694 0.0625,0.380859 0.147116,0.741466 0.690777,1.353804 1.408203,1.609375 0.173952,0.06197 0.286823,0.06297 0.513672,0.07617 0.226848,0.0132 0.548118,0.02227 1.021484,0.0293 0.946732,0.01406 2.500753,0.01833 5.064453,0.01953 l 6.171875,0.002 a 0.50005,0.50005 0 0 0 0.222656,-0.05078 L 30.761719,43.75 c 0.541698,-0.269942 0.945486,-0.776226 1.144531,-1.369141 0.04089,-0.121801 0.02832,-0.10485 0.03906,-0.162109 0.01074,-0.05726 0.02278,-0.13192 0.03906,-0.226563 0.03257,-0.189284 0.07809,-0.455049 0.132812,-0.791015 0.10945,-0.671932 0.260647,-1.622831 0.44336,-2.783203 0.365426,-2.320745 0.855933,-5.479438 1.382812,-8.917969 0.526782,-3.437898 1.009055,-6.587901 1.363282,-8.892578 0.177113,-1.152339 0.321936,-2.093609 0.423828,-2.753906 0.05094,-0.330149 0.09104,-0.590626 0.11914,-0.771485 0.0281,-0.180858 0.05182,-0.323258 0.04492,-0.285156 l 0.03906,-0.214844 a 0.50005,0.50005 0 0 0 -0.492188,-0.589843 z m 0,0.999999 h 10.830078 c -0.0277,0.178461 -0.06253,0.405422 -0.109375,0.708985 -0.101947,0.660661 -0.246697,1.601455 -0.423828,2.753906 -0.04777,0.310821 -0.131338,0.859041 -0.183593,1.199219 -0.05463,-0.7085 -0.238441,-1.37372 -0.66211,-1.8125 -0.477524,-0.494557 -1.199348,-0.730989 -1.912109,-0.539063 -0.822326,0.22143 -1.431888,0.978932 -1.695313,1.863282 -0.04241,0.142385 -0.04158,0.204452 -0.0625,0.361328 -0.02092,0.156875 -0.04603,0.363472 -0.07422,0.615234 -0.05638,0.503524 -0.125683,1.186409 -0.205079,1.992188 -0.15879,1.611557 -0.353853,3.710391 -0.541015,5.8125 -0.187162,2.102108 -0.366768,4.207632 -0.496094,5.832031 -0.06466,0.812199 -0.116257,1.502553 -0.150391,2.015625 -0.01707,0.256536 -0.0296,0.468653 -0.03711,0.630859 -0.0075,0.162207 -0.01533,0.242162 -0.0039,0.371094 0.03848,0.43455 0.142016,0.818558 0.339844,1.138672 0.197827,0.320114 0.508765,0.57305 0.878906,0.664062 0.412684,0.101476 0.832249,0.04443 1.208984,-0.15039 0.357163,-0.184697 0.496317,-0.595178 0.658203,-0.990235 -0.08736,0.549153 -0.189983,1.199631 -0.251953,1.580078 -0.05447,0.334371 -0.09728,0.599412 -0.128906,0.783204 -0.01581,0.0919 -0.02998,0.164488 -0.03906,0.21289 -0.0091,0.0484 -0.03599,0.128735 -0.002,0.02734 -0.116134,0.34594 -0.396788,0.66756 -0.644531,0.791016 l -0.242187,0.121093 -6.054688,-0.002 c -2.562681,-0.0012 -4.117119,-0.0057 -5.050781,-0.01953 -0.466831,-0.0069 -0.778159,-0.01579 -0.976563,-0.02734 -0.198403,-0.01155 -0.302271,-0.04302 -0.236328,-0.01953 -0.372537,-0.13271 -0.69212,-0.502662 -0.763672,-0.863281 0.0037,0.01877 -0.02185,-0.134351 -0.05469,-0.341797 -0.03284,-0.207447 -0.07832,-0.500183 -0.134766,-0.863281 -0.04669,-0.300384 -0.126999,-0.825244 -0.1875,-1.216797 0.104727,0.238523 0.193177,0.441009 0.396485,0.625 0.177372,0.160519 0.312523,0.205933 0.480468,0.277343 0.167946,0.07141 0.266909,0.142907 0.542969,0.148438 0.150775,0.003 0.152646,-0.01118 0.220703,-0.02344 0.06806,-0.01226 0.14437,-0.02871 0.222656,-0.04687 0.517552,-0.120081 0.908741,-0.526626 1.103516,-1.03125 0.121044,-0.313595 0.148401,-0.64887 0.142578,-1.246093 -0.0016,-0.164435 -0.02396,-0.464804 -0.0625,-0.970703 -0.03854,-0.505899 -0.09261,-1.183101 -0.158203,-1.972657 -0.131183,-1.579112 -0.306119,-3.611343 -0.484375,-5.632812 -0.178256,-2.021469 -0.360402,-4.032436 -0.503906,-5.56836 -0.07175,-0.767961 -0.133795,-1.4169 -0.181641,-1.890625 -0.02392,-0.236862 -0.04427,-0.428661 -0.06055,-0.572265 -0.01628,-0.143604 -0.01718,-0.195235 -0.04297,-0.310547 -0.107666,-0.481347 -0.345507,-0.930953 -0.646485,-1.302734 -0.300978,-0.371782 -0.660162,-0.679295 -1.111328,-0.800782 -0.714571,-0.192413 -1.435216,0.04011 -1.916015,0.53125 -0.437386,0.446797 -0.638238,1.122125 -0.683594,1.851563 -0.05269,-0.347129 -0.131129,-0.853439 -0.179688,-1.173828 -0.179142,-1.181981 -0.32745,-2.169767 -0.43164,-2.865235 -0.0393,-0.262296 -0.06608,-0.437349 -0.0918,-0.611328 0.244732,-0.01053 0.538204,-0.01933 1.167969,-0.02539 1.52282,-0.01466 4.378747,-0.01758 9.685546,-0.01758 z m -0.0078,2.265625 c -0.487993,0 -0.800201,0.0602 -1.138672,0.220704 -0.842758,0.399647 -1.445291,1.213831 -1.591797,2.140625 -0.0241,0.152474 -0.01028,0.17498 -0.0098,0.300781 5.19e-4,0.1258 0.003,0.294153 0.0078,0.505859 0.0097,0.423414 0.02695,1.017407 0.05273,1.765625 0.05156,1.496437 0.13482,3.604846 0.242188,6.15625 0.181467,4.312191 0.274629,6.502018 0.361328,7.699219 0.04335,0.5986 0.08154,0.949293 0.140625,1.216797 0.05908,0.267504 0.158953,0.462297 0.238281,0.597656 0.52538,0.896466 1.714852,1.163565 2.660156,0.6875 0.349941,-0.176234 0.642056,-0.479439 0.814454,-0.865234 0.172397,-0.385796 0.253847,-0.843527 0.30664,-1.435547 0.02419,-0.271306 0.07154,-1.254213 0.136719,-2.703125 0.06518,-1.448912 0.144599,-3.314719 0.222656,-5.189453 0.156115,-3.74947 0.302799,-7.475059 0.306641,-8.097657 0.0033,-0.531622 -0.03956,-0.860218 -0.169922,-1.207031 -0.248,-0.659798 -0.786791,-1.243811 -1.423828,-1.55664 -0.35116,-0.172445 -0.657557,-0.236328 -1.15625,-0.236329 z m 0,1 c 0.462004,0 0.424845,-0.0086 0.716797,0.134766 0.341125,0.167516 0.801449,0.673787 0.927734,1.009766 0.09413,0.25042 0.108543,0.358145 0.105469,0.849609 -0.0029,0.470806 -0.150597,4.312797 -0.306641,8.060547 -0.07802,1.873875 -0.157557,3.740342 -0.222656,5.1875 -0.0651,1.447158 -0.118682,2.523595 -0.130859,2.660156 -0.04811,0.53954 -0.13055,0.900374 -0.226563,1.115235 -0.09601,0.21486 -0.177272,0.294068 -0.349609,0.380859 -0.487794,0.245658 -1.138742,0.05903 -1.34961,-0.300781 -0.06993,-0.119318 -0.08481,-0.133516 -0.123047,-0.306641 -0.03824,-0.173125 -0.07907,-0.493968 -0.121093,-1.074219 -0.08404,-1.160501 -0.177916,-3.357904 -0.359375,-7.669922 -0.107298,-2.549751 -0.188824,-4.654378 -0.240235,-6.146484 -0.02571,-0.746053 -0.04321,-1.339503 -0.05273,-1.755859 -0.0048,-0.208178 -0.0073,-0.371664 -0.0078,-0.486328 -4.72e-4,-0.114665 0.01416,-0.242583 -0.002,-0.140625 0.09248,-0.585027 0.511737,-1.145292 1.033203,-1.392579 0.266685,-0.126465 0.261737,-0.125 0.708985,-0.125 z m 7.80664,0.0098 c 0.377479,-0.101644 0.668781,-0.0027 0.931641,0.269531 0.26286,0.272236 0.464889,0.744553 0.466797,1.34961 -1.55e-4,-0.04894 -0.0064,0.0782 -0.02344,0.222656 -0.017,0.144459 -0.04146,0.345207 -0.07422,0.589844 -0.06551,0.489273 -0.159584,1.159244 -0.273438,1.949218 -0.227707,1.57995 -0.534002,3.638176 -0.845703,5.697266 -0.311701,2.05909 -0.63005,4.120048 -0.880859,5.701172 -0.125405,0.790562 -0.233646,1.460972 -0.316407,1.951172 -0.04138,0.2451 -0.07668,0.44471 -0.103515,0.589844 -0.02684,0.145133 -0.05567,0.265866 -0.04492,0.230468 -0.146885,0.483907 -0.376726,0.73399 -0.392578,0.742188 -0.12533,0.06481 -0.397018,0.09608 -0.509766,0.06836 -0.102014,-0.02508 -0.179501,-0.07623 -0.267578,-0.21875 -0.08808,-0.142521 -0.166817,-0.379412 -0.195312,-0.701172 0.0038,0.04289 -0.0011,-0.08576 0.0059,-0.236328 0.007,-0.15057 0.0203,-0.358687 0.03711,-0.611328 0.03362,-0.505282 0.08397,-1.194187 0.148438,-2.003906 0.12893,-1.619439 0.309145,-3.722553 0.496094,-5.822266 0.186949,-2.099712 0.380766,-4.196191 0.539062,-5.802734 0.07915,-0.803272 0.14959,-1.482989 0.205078,-1.978516 0.02774,-0.247763 0.05297,-0.451062 0.07227,-0.595703 0.01929,-0.144641 0.04991,-0.276248 0.0293,-0.207031 0.175174,-0.588083 0.68666,-1.100272 0.996093,-1.183594 z m -15.609375,0.002 c 0.131179,0.03532 0.386235,0.204146 0.595704,0.462891 0.209468,0.258744 0.379117,0.594684 0.445312,0.890625 -0.01249,-0.05585 0.0099,0.06871 0.02539,0.205078 0.01546,0.136369 0.03685,0.327918 0.06055,0.5625 0.04738,0.469163 0.108066,1.11625 0.179687,1.882812 0.143243,1.533126 0.325766,3.542345 0.503906,5.5625 0.17814,2.020156 0.353412,4.052449 0.484375,5.628907 0.06548,0.788229 0.119966,1.462964 0.158203,1.964843 0.03824,0.50188 0.05819,0.863289 0.05859,0.904297 0.0055,0.565144 -0.01658,0.727634 -0.07422,0.876953 -0.100106,0.259358 -0.26038,0.384438 -0.396484,0.416016 -0.06183,0.01435 -0.127572,0.02842 -0.175781,0.03711 -0.04821,0.0087 -0.137933,0.0055 -0.02344,0.0078 0.133076,0.0027 -0.05522,-0.01959 -0.169922,-0.06836 -0.114698,-0.04877 -0.257798,-0.148903 -0.201171,-0.09766 0.02855,0.02584 -0.09153,-0.127267 -0.175782,-0.320312 -0.08425,-0.193045 -0.16546,-0.438007 -0.216797,-0.667969 -0.04062,-0.181968 -0.239186,-1.380361 -0.484375,-2.958984 -0.245188,-1.578623 -0.550108,-3.592468 -0.847656,-5.587891 -0.297548,-1.995423 -0.587236,-3.973521 -0.802734,-5.484375 -0.107749,-0.755427 -0.197899,-1.393509 -0.259766,-1.857422 -0.03093,-0.231956 -0.05426,-0.421115 -0.07031,-0.55664 -0.01605,-0.135526 -0.02132,-0.261827 -0.02149,-0.201172 0.0016,-0.601644 0.201574,-1.068956 0.464844,-1.337891 0.26327,-0.268935 0.55903,-0.367161 0.943359,-0.263672 z"
         id="path826" />
      <path
         style="color:#000000;fill:#6600cc;stroke-linecap:round;stroke-linejoin:round;-inkscape-stroke:none;paint-order:stroke fill markers;fill-opacity:1"
         d="m 17.585344,43.377089 c -0.544982,-0.194141 -0.975926,-0.684931 -1.08526,-1.235974 -0.09269,-0.467171 -3.899438,-25.398307 -3.899438,-25.538201 0,-0.102158 0.806639,-0.109922 11.420492,-0.109922 h 11.420493 l -0.03884,0.214409 c -0.02136,0.117925 -0.900865,5.840168 -1.954448,12.716097 -1.053584,6.875928 -1.960455,12.635281 -2.015269,12.798561 -0.15759,0.469428 -0.500578,0.883096 -0.895299,1.079795 l -0.348517,0.173673 -6.171919,-0.0029 c -5.126386,-0.0024 -6.215976,-0.01859 -6.431992,-0.09554 z m 7.166815,-3.274193 c 0.522279,-0.263025 0.747507,-0.767046 0.848414,-1.898607 0.07274,-0.815736 0.657314,-14.855619 0.664061,-15.949024 0.0032,-0.511544 -0.02625,-0.729947 -0.138494,-1.028564 -0.187143,-0.497889 -0.687114,-1.043582 -1.176196,-1.283755 -0.321556,-0.157907 -0.455799,-0.184342 -0.936148,-0.184342 -0.467621,0 -0.621029,0.02858 -0.923607,0.172067 -0.682113,0.323467 -1.192991,1.011374 -1.312484,1.767285 -0.03194,0.202069 0.08264,3.527546 0.297306,8.628706 0.362927,8.624217 0.373689,8.77284 0.6722,9.282194 0.368124,0.628137 1.288398,0.854902 2.004948,0.49404 z m -6.388094,0.01177 c 0.326828,-0.07583 0.602701,-0.342141 0.750142,-0.724132 0.08934,-0.231458 0.114891,-0.47964 0.109225,-1.060824 -0.008,-0.821774 -1.376384,-16.339555 -1.482784,-16.815244 -0.173861,-0.777289 -0.816652,-1.571293 -1.398997,-1.728102 -1.098902,-0.295903 -2.035726,0.661079 -2.039455,2.08334 -0.0014,0.516671 2.262581,15.699266 2.498683,16.75688 0.118065,0.528869 0.358943,1.080791 0.545301,1.249443 0.120746,0.109273 0.554168,0.293564 0.697153,0.296429 0.03628,7.25e-4 0.180614,-0.02528 0.320732,-0.05779 z M 30.493544,40.0045 c 0.24956,-0.129053 0.475026,-0.495306 0.640497,-1.040445 0.183141,-0.603351 2.587206,-16.484555 2.585329,-17.078627 -0.0045,-1.427375 -0.9379,-2.394059 -2.028141,-2.100488 -0.56588,0.152376 -1.126562,0.786904 -1.345862,1.523121 -0.17436,0.585353 -1.614107,16.755826 -1.553147,17.444128 0.06698,0.75631 0.369222,1.245378 0.841377,1.361474 0.262716,0.0646 0.608914,0.02065 0.859947,-0.109163 z"
         id="path828" />
    </g>
  </g>
</svg>
