<?xml version="1.0" encoding="UTF-8" standalone="no"?>
<!-- Created with Inkscape (http://www.inkscape.org/) -->

<svg
   width="48"
   height="48"
   viewBox="0 0 12.7 12.7"
   version="1.1"
   id="svg988"
   inkscape:version="1.1 (c68e22c387, 2021-05-23)"
   sodipodi:docname="trash_can.svg"
   xmlns:inkscape="http://www.inkscape.org/namespaces/inkscape"
   xmlns:sodipodi="http://sodipodi.sourceforge.net/DTD/sodipodi-0.dtd"
   xmlns="http://www.w3.org/2000/svg"
   xmlns:svg="http://www.w3.org/2000/svg">
  <sodipodi:namedview
     id="namedview990"
     pagecolor="#ffffff"
     bordercolor="#999999"
     borderopacity="1"
     inkscape:pageshadow="0"
     inkscape:pageopacity="0"
     inkscape:pagecheckerboard="0"
     inkscape:document-units="px"
     showgrid="true"
     width="48mm"
     units="px"
     inkscape:snap-nodes="true"
     inkscape:zoom="10.718292"
     inkscape:cx="22.764822"
     inkscape:cy="27.849588"
     inkscape:window-width="1280"
     inkscape:window-height="961"
     inkscape:window-x="-8"
     inkscape:window-y="-8"
     inkscape:window-maximized="1"
     inkscape:current-layer="layer1"
     inkscape:object-nodes="true"
     inkscape:snap-smooth-nodes="true"
     inkscape:object-paths="false"
     inkscape:snap-intersection-paths="false">
    <inkscape:grid
       type="xygrid"
       id="grid1049"
       spacingx="1.0583333"
       spacingy="1.0583333" />
  </sodipodi:namedview>
  <defs
     id="defs985" />
  <g
     inkscape:label="Camada 1"
     inkscape:groupmode="layer"
     id="layer1">
    <path
       id="rect3621"
       style="color:#000000;fill:#6600cc;stroke:#000000;stroke-width:0.486036;stroke-linecap:round;stroke-linejoin:round;stroke-miterlimit:4;stroke-dasharray:none;stroke-opacity:1;paint-order:stroke fill markers;fill-opacity:1"
       d="M 18.091797 4.2421875 C 15.909455 4.2421875 14.152344 8.0800781 14.152344 8.0800781 L 10.212891 8.0800781 C 9.1217199 8.0800781 8.2421875 8.9368775 8.2421875 10 C 8.2421875 11.063123 9.1217199 11.919922 10.212891 11.919922 L 18.091797 11.919922 L 29.908203 11.919922 L 37.787109 11.919922 C 38.878279 11.919922 39.757813 11.063123 39.757812 10 C 39.757812 8.9368775 38.878279 8.0800781 37.787109 8.0800781 L 33.847656 8.0800781 C 33.847656 8.0800781 32.090545 4.2421875 29.908203 4.2421875 L 18.091797 4.2421875 z M 20.060547 6.1601562 L 27.941406 6.1601562 C 29.032574 6.1601563 29.910156 7.0169556 29.910156 8.0800781 L 18.089844 8.0800781 C 18.089844 7.0169556 18.969379 6.1601562 20.060547 6.1601562 z "
       transform="scale(0.26458333)" />
    <path
       style="fill:#6600cc;fill-opacity:1;stroke:#000000;stroke-width:1.00000001;stroke-linecap:round;stroke-linejoin:round;stroke-miterlimit:4;stroke-dasharray:none;paint-order:stroke fill markers"
       d="m 17.585344,43.377089 c -0.544982,-0.194141 -0.975926,-0.684931 -1.08526,-1.235974 -0.09269,-0.467171 -3.899438,-25.398307 -3.899438,-25.538201 0,-0.102158 0.806639,-0.109922 11.420492,-0.109922 h 11.420493 l -0.03884,0.214409 c -0.02136,0.117925 -0.900865,5.840168 -1.954448,12.716097 -1.053584,6.875928 -1.960455,12.635281 -2.015269,12.798561 -0.15759,0.469428 -0.500578,0.883096 -0.895299,1.079795 l -0.348517,0.173673 -6.171919,-0.0029 c -5.126386,-0.0024 -6.215976,-0.01859 -6.431992,-0.09554 z m 7.166815,-3.274193 c 0.522279,-0.263025 0.747507,-0.767046 0.848414,-1.898607 0.07274,-0.815736 0.657314,-14.855619 0.664061,-15.949024 0.0032,-0.511544 -0.02625,-0.729947 -0.138494,-1.028564 -0.187143,-0.497889 -0.687114,-1.043582 -1.176196,-1.283755 -0.321556,-0.157907 -0.455799,-0.184342 -0.936148,-0.184342 -0.467621,0 -0.621029,0.02858 -0.923607,0.172067 -0.682113,0.323467 -1.192991,1.011374 -1.312484,1.767285 -0.03194,0.202069 0.08264,3.527546 0.297306,8.628706 0.362927,8.624217 0.373689,8.77284 0.6722,9.282194 0.368124,0.628137 1.288398,0.854902 2.004948,0.49404 z m -6.388094,0.01177 c 0.326828,-0.07583 0.602701,-0.342141 0.750142,-0.724132 0.08934,-0.231458 0.114891,-0.47964 0.109225,-1.060824 -0.008,-0.821774 -1.376384,-16.339555 -1.482784,-16.815244 -0.173861,-0.777289 -0.816652,-1.571293 -1.398997,-1.728102 -1.098902,-0.295903 -2.035726,0.661079 -2.039455,2.08334 -0.0014,0.516671 2.262581,15.699266 2.498683,16.75688 0.118065,0.528869 0.358943,1.080791 0.545301,1.249443 0.120746,0.109273 0.554168,0.293564 0.697153,0.296429 0.03628,7.25e-4 0.180614,-0.02528 0.320732,-0.05779 z M 30.493544,40.0045 c 0.24956,-0.129053 0.475026,-0.495306 0.640497,-1.040445 0.183141,-0.603351 2.587206,-16.484555 2.585329,-17.078627 -0.0045,-1.427375 -0.9379,-2.394059 -2.028141,-2.100488 -0.56588,0.152376 -1.126562,0.786904 -1.345862,1.523121 -0.17436,0.585353 -1.614107,16.755826 -1.553147,17.444128 0.06698,0.75631 0.369222,1.245378 0.841377,1.361474 0.262716,0.0646 0.608914,0.02065 0.859947,-0.109163 z"
       id="path4300"
       transform="scale(0.26458333)" />
  </g>
</svg>
