<?xml version="1.0" encoding="UTF-8" standalone="no"?>
<!-- Created with Inkscape (http://www.inkscape.org/) -->

<svg
   width="48"
   height="48"
   viewBox="0 0 12.7 12.7"
   version="1.1"
   id="svg5"
   inkscape:version="1.1 (c68e22c387, 2021-05-23)"
   sodipodi:docname="add_new.svg"
   xmlns:inkscape="http://www.inkscape.org/namespaces/inkscape"
   xmlns:sodipodi="http://sodipodi.sourceforge.net/DTD/sodipodi-0.dtd"
   xmlns="http://www.w3.org/2000/svg"
   xmlns:svg="http://www.w3.org/2000/svg">
  <sodipodi:namedview
     id="namedview7"
     pagecolor="#ffffff"
     bordercolor="#999999"
     borderopacity="1"
     inkscape:pageshadow="0"
     inkscape:pageopacity="0"
     inkscape:pagecheckerboard="0"
     inkscape:document-units="px"
     showgrid="true"
     inkscape:zoom="13.9375"
     inkscape:cx="24.035874"
     inkscape:cy="24"
     inkscape:window-width="1280"
     inkscape:window-height="961"
     inkscape:window-x="-8"
     inkscape:window-y="-8"
     inkscape:window-maximized="1"
     inkscape:current-layer="layer1"
     inkscape:snap-nodes="true">
    <inkscape:grid
       type="xygrid"
       id="grid824"
       spacingx="0.52916667"
       spacingy="0.52916667"
       originx="0"
       originy="0" />
  </sodipodi:namedview>
  <defs
     id="defs2" />
  <g
     inkscape:label="Camada 1"
     inkscape:groupmode="layer"
     id="layer1">
    <path
       id="rect1121"
       style="fill:#ffffff;fill-opacity:1;stroke:#000000;stroke-width:0.50000001;stroke-linecap:round;stroke-linejoin:round;paint-order:stroke fill markers;stroke-opacity:1;stroke-miterlimit:4;stroke-dasharray:none"
       d="M 24 10 C 22.892 10 22 10.892 22 12 L 22 22 L 12 22 C 10.892 22 10 22.892 10 24 C 10 25.108 10.892 26 12 26 L 22 26 L 22 36 C 22 37.108 22.892 38 24 38 C 25.108 38 26 37.108 26 36 L 26 26 L 36 26 C 37.108 26 38 25.108 38 24 C 38 22.892 37.108 22 36 22 L 26 22 L 26 12 C 26 10.892 25.108 10 24 10 z "
       transform="scale(0.26458333)" />
  </g>
</svg>
